<svg version="1.2" xmlns="http://www.w3.org/2000/svg" viewBox="0 0 19 19" width="19" height="19">
	<title>icons8-snapchat (1)-svg</title>
	<defs>
		<linearGradient id="g1" x2="1" gradientUnits="userSpaceOnUse" gradientTransform="matrix(3.551,20.14,-20.14,3.551,7.725,-0.57)">
			<stop offset="0" stop-color="#ffffff"/>
			<stop offset="1" stop-color="#ffffff"/>
		</linearGradient>
	</defs>
	<style>
		.s0 { fill: url(#g1) } 
		.s1 { opacity: .1;fill: #000000 } 
		.s2 { opacity: .1;fill: none;stroke: #1d1d1b;stroke-miterlimit:10;stroke-width: 1;stroke-dasharray: NaN } 
		.s3 { opacity: .1;fill: none;stroke: #000000;stroke-miterlimit:10;stroke-width: .5;stroke-dasharray: NaN } 
		.s4 { fill: #000000 } 
	</style>
	<g>
		<g>
			<path class="s0" d="m14.7 18.9h-10.4c-2.3 0-4.2-1.9-4.2-4.2v-10.4c0-2.3 1.9-4.2 4.2-4.2h10.4c2.3 0 4.2 1.9 4.2 4.2v10.4c0 2.3-1.9 4.2-4.2 4.2z"/>
			<path class="s1" d="m4.6 7.7q-0.1 0-0.3 0-0.2 0.1-0.3 0.4c0 0.2 0 0.5 0.2 0.6l2 1.2-0.1 0.2c0 0.1-0.9 2.3-2.5 3.2q-0.1 0.1-0.1 0.1 0 0.1 0.1 0.2c0.3 0.3 0.7 0.5 1.4 0.6h0.2v0.3c0 0.3 0.1 0.6 0.2 0.6 0.5 0 1.4 0 2.4 0.5 0.5 0.3 1.3 0.4 1.7 0.4 0.4 0 1.2-0.1 1.7-0.4 1-0.5 1.9-0.5 2.4-0.5 0.1 0 0.2-0.3 0.2-0.6v-0.3h0.2c0.7-0.1 1.1-0.3 1.4-0.6q0.1-0.1 0.1-0.2 0 0-0.1-0.1c-1.6-0.9-2.5-3.1-2.5-3.2l-0.1-0.2 2-1.2c0.2-0.1 0.2-0.4 0.2-0.6q-0.1-0.3-0.3-0.4-0.2-0.1-0.5 0l-1.3 0.6v-1.9c0-1.9-1.5-3.4-3.4-3.4-1.9 0-3.4 1.5-3.4 3.4v1.9l-1.3-0.6q-0.1 0-0.2 0z"/>
			<path fill-rule="evenodd" class="s2" d="m9.5 16.3c0.5 0 1.2-0.2 1.8-0.5 0.9-0.4 1.9-0.4 2.3-0.4 0.5 0 0.5-0.9 0.5-0.9 0.7-0.2 1.1-0.4 1.5-0.7 0.3-0.2 0.2-0.6-0.1-0.7-1.5-0.9-2.3-3.1-2.3-3.1l1.7-1.1c0.3-0.2 0.4-0.6 0.3-0.9-0.1-0.5-0.6-0.7-1.1-0.5l-0.9 0.4v-1.5c0-2-1.7-3.7-3.7-3.7-2 0-3.7 1.7-3.7 3.7v1.5l-0.9-0.4c-0.5-0.2-1 0-1.1 0.5-0.1 0.3 0 0.7 0.3 0.9l1.7 1.1c0 0-0.8 2.2-2.3 3.1-0.3 0.1-0.4 0.5-0.1 0.7 0.4 0.3 0.8 0.5 1.5 0.7 0 0 0 0.9 0.5 0.9 0.4 0 1.4 0 2.3 0.4 0.6 0.3 1.3 0.5 1.8 0.5z"/>
			<path fill-rule="evenodd" class="s3" d="m9.5 16.3c0.5 0 1.2-0.2 1.8-0.5 0.9-0.4 1.9-0.4 2.3-0.4 0.5 0 0.5-0.9 0.5-0.9 0.7-0.2 1.1-0.4 1.5-0.7 0.3-0.2 0.2-0.6-0.1-0.7-1.5-0.9-2.3-3.1-2.3-3.1l1.7-1.1c0.3-0.2 0.4-0.6 0.3-0.9-0.1-0.5-0.6-0.7-1.1-0.5l-0.9 0.4v-1.5c0-2-1.7-3.7-3.7-3.7-2 0-3.7 1.7-3.7 3.7v1.5l-0.9-0.4c-0.5-0.2-1 0-1.1 0.5-0.1 0.3 0 0.7 0.3 0.9l1.7 1.1c0 0-0.8 2.2-2.3 3.1-0.3 0.1-0.4 0.5-0.1 0.7 0.4 0.3 0.8 0.5 1.5 0.7 0 0 0 0.9 0.5 0.9 0.4 0 1.4 0 2.3 0.4 0.6 0.3 1.3 0.5 1.8 0.5z"/>
			<path class="s4" d="m9.5 16.3c0.5 0 1.2-0.2 1.8-0.5 0.9-0.4 1.9-0.4 2.3-0.4 0.5 0 0.5-0.9 0.5-0.9 0.7-0.2 1.1-0.4 1.5-0.7 0.3-0.2 0.2-0.6-0.1-0.7-1.5-0.9-2.3-3.1-2.3-3.1l1.7-1.1c0.3-0.2 0.4-0.6 0.3-0.9-0.1-0.5-0.6-0.7-1.1-0.5l-0.9 0.4v-1.5c0-2-1.7-3.7-3.7-3.7-2 0-3.7 1.7-3.7 3.7v1.5l-0.9-0.4c-0.5-0.2-1 0-1.1 0.5-0.1 0.3 0 0.7 0.3 0.9l1.7 1.1c0 0-0.8 2.2-2.3 3.1-0.3 0.1-0.4 0.5-0.1 0.7 0.4 0.3 0.8 0.5 1.5 0.7 0 0 0 0.9 0.5 0.9 0.4 0 1.4 0 2.3 0.4 0.6 0.3 1.3 0.5 1.8 0.5z"/>
		</g>
	</g>
</svg>